<mxfile host="app.diagrams.net" modified="2024-04-12T12:59:22.304Z" agent="Mozilla/5.0 (Windows NT 10.0; Win64; x64) AppleWebKit/537.36 (KHTML, like Gecko) Chrome/122.0.0.0 Whale/3.25.232.19 Safari/537.36" etag="5L9dMU32E8WbhsSrcRU0" version="24.2.3" type="github">
  <diagram id="C5RBs43oDa-KdzZeNtuy" name="Page-1">
    <mxGraphModel dx="977" dy="856" grid="1" gridSize="10" guides="1" tooltips="1" connect="1" arrows="1" fold="1" page="1" pageScale="1" pageWidth="827" pageHeight="1169" math="0" shadow="0">
      <root>
        <mxCell id="WIyWlLk6GJQsqaUBKTNV-0" />
        <mxCell id="WIyWlLk6GJQsqaUBKTNV-1" parent="WIyWlLk6GJQsqaUBKTNV-0" />
        <mxCell id="rCQHxXC-FA9r8LFdVMm9-4" value="commnunity" style="swimlane;fontStyle=1;align=center;verticalAlign=top;childLayout=stackLayout;horizontal=1;startSize=28;horizontalStack=0;resizeParent=1;resizeParentMax=0;resizeLast=0;collapsible=1;marginBottom=0;whiteSpace=wrap;html=1;" vertex="1" parent="WIyWlLk6GJQsqaUBKTNV-1">
          <mxGeometry x="40" y="70" width="140" height="250" as="geometry" />
        </mxCell>
        <mxCell id="rCQHxXC-FA9r8LFdVMm9-5" value="&lt;div&gt;id&lt;/div&gt;&lt;div&gt;title&lt;/div&gt;&lt;div&gt;contents&lt;/div&gt;&lt;div&gt;comment&lt;/div&gt;&lt;div&gt;writer&lt;/div&gt;" style="text;strokeColor=none;fillColor=none;align=left;verticalAlign=top;spacingLeft=4;spacingRight=4;overflow=hidden;rotatable=0;points=[[0,0.5],[1,0.5]];portConstraint=eastwest;whiteSpace=wrap;html=1;" vertex="1" parent="rCQHxXC-FA9r8LFdVMm9-4">
          <mxGeometry y="28" width="140" height="92" as="geometry" />
        </mxCell>
        <mxCell id="rCQHxXC-FA9r8LFdVMm9-6" value="" style="line;strokeWidth=1;fillColor=none;align=left;verticalAlign=middle;spacingTop=-1;spacingLeft=3;spacingRight=3;rotatable=0;labelPosition=right;points=[];portConstraint=eastwest;strokeColor=inherit;" vertex="1" parent="rCQHxXC-FA9r8LFdVMm9-4">
          <mxGeometry y="120" width="140" height="8" as="geometry" />
        </mxCell>
        <mxCell id="rCQHxXC-FA9r8LFdVMm9-7" value="createNewPost()&lt;div&gt;modifyPost()&lt;/div&gt;" style="text;strokeColor=none;fillColor=none;align=left;verticalAlign=top;spacingLeft=4;spacingRight=4;overflow=hidden;rotatable=0;points=[[0,0.5],[1,0.5]];portConstraint=eastwest;whiteSpace=wrap;html=1;" vertex="1" parent="rCQHxXC-FA9r8LFdVMm9-4">
          <mxGeometry y="128" width="140" height="122" as="geometry" />
        </mxCell>
        <mxCell id="rCQHxXC-FA9r8LFdVMm9-18" value="user" style="swimlane;fontStyle=1;align=center;verticalAlign=top;childLayout=stackLayout;horizontal=1;startSize=28;horizontalStack=0;resizeParent=1;resizeParentMax=0;resizeLast=0;collapsible=1;marginBottom=0;whiteSpace=wrap;html=1;" vertex="1" parent="WIyWlLk6GJQsqaUBKTNV-1">
          <mxGeometry x="200" y="70" width="130" height="250" as="geometry" />
        </mxCell>
        <mxCell id="rCQHxXC-FA9r8LFdVMm9-19" value="&lt;div&gt;id&lt;/div&gt;&lt;div&gt;&lt;span style=&quot;background-color: initial;&quot;&gt;email&lt;/span&gt;&lt;/div&gt;&lt;div&gt;password&lt;/div&gt;&lt;div&gt;nickname&lt;/div&gt;" style="text;strokeColor=none;fillColor=none;align=left;verticalAlign=top;spacingLeft=4;spacingRight=4;overflow=hidden;rotatable=0;points=[[0,0.5],[1,0.5]];portConstraint=eastwest;whiteSpace=wrap;html=1;" vertex="1" parent="rCQHxXC-FA9r8LFdVMm9-18">
          <mxGeometry y="28" width="130" height="102" as="geometry" />
        </mxCell>
        <mxCell id="rCQHxXC-FA9r8LFdVMm9-20" value="" style="line;strokeWidth=1;fillColor=none;align=left;verticalAlign=middle;spacingTop=-1;spacingLeft=3;spacingRight=3;rotatable=0;labelPosition=right;points=[];portConstraint=eastwest;strokeColor=inherit;" vertex="1" parent="rCQHxXC-FA9r8LFdVMm9-18">
          <mxGeometry y="130" width="130" height="8" as="geometry" />
        </mxCell>
        <mxCell id="rCQHxXC-FA9r8LFdVMm9-21" value="login()&lt;div&gt;logout()&lt;/div&gt;&lt;div&gt;signup()&lt;/div&gt;&lt;div&gt;updateMyInfo()&amp;nbsp;&lt;/div&gt;" style="text;strokeColor=none;fillColor=none;align=left;verticalAlign=top;spacingLeft=4;spacingRight=4;overflow=hidden;rotatable=0;points=[[0,0.5],[1,0.5]];portConstraint=eastwest;whiteSpace=wrap;html=1;" vertex="1" parent="rCQHxXC-FA9r8LFdVMm9-18">
          <mxGeometry y="138" width="130" height="112" as="geometry" />
        </mxCell>
        <mxCell id="rCQHxXC-FA9r8LFdVMm9-22" value="quiz" style="swimlane;fontStyle=1;align=center;verticalAlign=top;childLayout=stackLayout;horizontal=1;startSize=28;horizontalStack=0;resizeParent=1;resizeParentMax=0;resizeLast=0;collapsible=1;marginBottom=0;whiteSpace=wrap;html=1;" vertex="1" parent="WIyWlLk6GJQsqaUBKTNV-1">
          <mxGeometry x="350" y="70" width="140" height="250" as="geometry" />
        </mxCell>
        <mxCell id="rCQHxXC-FA9r8LFdVMm9-23" value="&lt;div&gt;id&lt;/div&gt;&lt;div&gt;title&lt;/div&gt;&lt;div&gt;contents&lt;/div&gt;&lt;div&gt;status&lt;/div&gt;&lt;div&gt;createdAt&lt;/div&gt;&lt;div&gt;reply&lt;/div&gt;" style="text;strokeColor=none;fillColor=none;align=left;verticalAlign=top;spacingLeft=4;spacingRight=4;overflow=hidden;rotatable=0;points=[[0,0.5],[1,0.5]];portConstraint=eastwest;whiteSpace=wrap;html=1;" vertex="1" parent="rCQHxXC-FA9r8LFdVMm9-22">
          <mxGeometry y="28" width="140" height="92" as="geometry" />
        </mxCell>
        <mxCell id="rCQHxXC-FA9r8LFdVMm9-24" value="" style="line;strokeWidth=1;fillColor=none;align=left;verticalAlign=middle;spacingTop=-1;spacingLeft=3;spacingRight=3;rotatable=0;labelPosition=right;points=[];portConstraint=eastwest;strokeColor=inherit;" vertex="1" parent="rCQHxXC-FA9r8LFdVMm9-22">
          <mxGeometry y="120" width="140" height="8" as="geometry" />
        </mxCell>
        <mxCell id="rCQHxXC-FA9r8LFdVMm9-25" value="getDetail()&lt;div&gt;getFilteredList()&lt;/div&gt;&lt;div&gt;getSortedList()&lt;/div&gt;&lt;div&gt;getChatGptFeedback()&lt;/div&gt;&lt;div&gt;&lt;br&gt;&lt;/div&gt;&lt;div&gt;&lt;br&gt;&lt;/div&gt;" style="text;strokeColor=none;fillColor=none;align=left;verticalAlign=top;spacingLeft=4;spacingRight=4;overflow=hidden;rotatable=0;points=[[0,0.5],[1,0.5]];portConstraint=eastwest;whiteSpace=wrap;html=1;" vertex="1" parent="rCQHxXC-FA9r8LFdVMm9-22">
          <mxGeometry y="128" width="140" height="122" as="geometry" />
        </mxCell>
      </root>
    </mxGraphModel>
  </diagram>
</mxfile>
